<svg width="18" height="21" viewBox="0 0 18 21" fill="none" xmlns="http://www.w3.org/2000/svg">
<g clip-path="url(#clip0_1529_23682)">
<path fill-rule="evenodd" clip-rule="evenodd" d="M2.66916 0C1.20429 0 0.0078125 1.13241 0.0078125 2.51884V18.4717C0.0078125 19.8581 1.20429 20.9906 2.66916 20.9906H15.3107C16.7756 20.9906 17.9721 19.8581 17.9721 18.4717L17.9722 2.51884C17.9722 1.13241 16.7758 0 15.3109 0L2.66916 0ZM3.7227 2.9912H14.2574C15.1385 2.9912 15.8654 3.6791 15.8654 4.5131C15.8654 5.3471 15.1385 6.03499 14.2574 6.03499L3.7227 6.03485C2.84152 6.03485 2.1147 5.34695 2.1147 4.51295C2.1147 3.67895 2.84152 2.99106 3.7227 2.99106V2.9912ZM3.7227 7.97648C4.60421 7.97648 5.3307 8.66407 5.3307 9.49837C5.3307 10.3327 4.60421 11.0203 3.7227 11.0203C2.8412 11.0201 2.1147 10.3325 2.1147 9.49826C2.1147 8.66411 2.8412 7.97651 3.7227 7.97651V7.97648ZM8.99003 7.97648C9.87154 7.97648 10.598 8.66407 10.598 9.49837C10.598 10.3327 9.87154 11.0203 8.99003 11.0203C8.10853 11.0203 7.38203 10.3327 7.38203 9.49837C7.38203 8.66407 8.10853 7.97648 8.99003 7.97648ZM14.2574 7.97648C15.1389 7.97648 15.8654 8.66407 15.8654 9.49837C15.8654 10.3327 15.1389 11.0203 14.2574 11.0203C13.3759 11.0203 12.6494 10.3327 12.6494 9.49837C12.6494 8.66407 13.3759 7.97648 14.2574 7.97648ZM3.7227 11.9647C4.60421 11.9647 5.3307 12.6523 5.3307 13.4866C5.3307 14.3209 4.60421 15.0085 3.7227 15.0085C2.8412 15.0083 2.1147 14.3209 2.1147 13.4866C2.1147 12.6523 2.8412 11.9647 3.7227 11.9647ZM8.99003 11.9647C9.87154 11.9647 10.598 12.6523 10.598 13.4866C10.598 14.3209 9.87154 15.0085 8.99003 15.0085C8.10853 15.0085 7.38203 14.3209 7.38203 13.4866C7.38203 12.6523 8.10853 11.9647 8.99003 11.9647ZM14.257 11.9647H14.2574C15.1385 11.9647 15.8654 12.6526 15.8654 13.4866V17.4752C15.8654 18.309 15.1385 18.9966 14.2574 18.9966H14.257C13.3759 18.9966 12.6494 18.309 12.6494 17.4752V13.4866C12.6494 12.6526 13.3759 11.9647 14.257 11.9647ZM3.7227 15.9529C4.60421 15.9529 5.3307 16.6405 5.3307 17.4748C5.3307 18.3091 4.60421 18.9967 3.7227 18.9967C2.8412 18.9966 2.1147 18.309 2.1147 17.4747C2.1147 16.6404 2.8412 15.953 3.7227 15.953V15.9529ZM8.99003 15.9529C9.87154 15.9529 10.598 16.6405 10.598 17.4748C10.598 18.3091 9.87154 18.9967 8.99003 18.9967C8.10853 18.9967 7.38203 18.3091 7.38203 17.4748C7.38203 16.6404 8.10853 15.9529 8.99003 15.9529Z" fill="#C19047"/>
</g>
<defs>
<clipPath id="clip0_1529_23682">
<rect width="18" height="21" fill="white"/>
</clipPath>
</defs>
</svg>
