<svg width="30" height="30" viewBox="0 0 30 30" fill="none" xmlns="http://www.w3.org/2000/svg">
<g clip-path="url(#clip0_1529_23658)">
<path d="M15.3999 20.0866L16.6088 19.2878C17.0999 18.9835 17.2509 18.375 17.062 17.8425C16.8354 17.3101 16.2686 17.0059 15.7398 17.1199L14.3046 17.3865C13.889 17.4626 13.4735 17.3104 13.1713 17.0061C13.0956 16.93 12.9823 16.8159 12.9067 16.7398C12.6045 16.4355 12.4535 16.0171 12.5289 15.5988L12.7934 14.1535C12.9067 13.5832 12.6045 13.0126 12.0756 12.8223C11.5468 12.5942 10.9424 12.7844 10.6402 13.2786L9.84678 14.4957C9.62017 14.8379 9.20465 15.0281 8.7891 15.0281H8.41125C7.99573 15.0281 7.58022 14.8379 7.35358 14.4957L6.56019 13.2786C6.25796 12.7841 5.65355 12.6321 5.12471 12.8223C4.59589 13.0505 4.29368 13.6211 4.40694 14.1535L4.67148 15.5988C4.7471 16.0171 4.59586 16.4354 4.29363 16.7398C4.21801 16.8159 4.10471 16.93 4.02909 17.0061C3.72686 17.3104 3.31131 17.4624 2.8958 17.3865L1.46032 17.1202C0.893816 17.0061 0.32703 17.3104 0.138092 17.8428C-0.0885118 18.3752 0.100414 18.9838 0.5913 19.288L1.8002 20.0868C2.14011 20.315 2.32903 20.7333 2.32903 21.1517V21.5321C2.32903 21.9504 2.1401 22.3688 1.8002 22.5969L0.5913 23.3957C0.139152 23.7377 -0.0497725 24.3462 0.176831 24.8786C0.403435 25.4111 0.97022 25.7153 1.49906 25.6013L2.93454 25.335C3.35007 25.2588 3.76557 25.4111 4.06783 25.7154C4.14345 25.7915 4.25675 25.9056 4.33237 25.9817C4.6346 26.286 4.78558 26.7044 4.71022 27.1227L4.44567 28.5679C4.33237 29.1383 4.6346 29.7089 5.16345 29.8991C5.69227 30.1273 6.29674 29.9371 6.59893 29.4428L7.39232 28.2257C7.61892 27.8835 8.03444 27.6933 8.44999 27.6933H8.82784C9.24337 27.6933 9.65887 27.8835 9.88551 28.2257L10.6789 29.4428C10.9811 29.9373 11.5855 30.0893 12.1144 29.8991C12.6432 29.671 12.9454 29.1003 12.8322 28.5679L12.5676 27.1227C12.492 26.7043 12.6432 26.286 12.9455 25.9817L13.21 25.7154C13.5122 25.4111 13.9278 25.2591 14.3433 25.335L15.7788 25.6013C16.3453 25.7154 16.9121 25.4111 17.101 24.8786C17.3276 24.3462 17.1387 23.7377 16.6478 23.4334L15.3999 22.5967C15.06 22.3686 14.8711 21.9882 14.8711 21.5698V21.1515C14.8711 20.7332 15.06 20.3147 15.3999 20.0866Z" fill="#C19047"/>
<path d="M24.0141 7.42323C24.0141 7.04281 24.2031 6.70058 24.5053 6.51043L25.5252 5.82601C25.9408 5.52173 26.1297 4.98934 25.9408 4.49481L25.8651 4.3428C25.6762 3.84832 25.1474 3.58226 24.6562 3.69631L23.4473 3.92446C23.1074 4.00059 22.7296 3.88652 22.4653 3.62018C22.2007 3.35383 22.0874 3.01163 22.1631 2.63145L22.3897 1.41434C22.503 0.919859 22.2007 0.387444 21.7475 0.197223L21.5966 0.121088C21.1054 -0.0691196 20.5766 0.0831526 20.2743 0.539437L19.5945 1.5666C19.4056 1.87088 19.0657 2.06108 18.6879 2.06108C18.31 2.06108 17.9701 1.87087 17.7812 1.5666L17.1014 0.539709C16.7992 0.121359 16.2704 -0.068841 15.7792 0.121359L15.6282 0.197495C15.1371 0.387702 14.8728 0.920144 14.9861 1.41461L15.2127 2.63172C15.2883 2.97394 15.175 3.35437 14.9105 3.62045C14.6459 3.88679 14.306 4.00086 13.9284 3.92473L12.7195 3.69659C12.2284 3.58251 11.6996 3.88679 11.5106 4.34307L11.435 4.49508C11.2461 4.98956 11.3973 5.52197 11.8505 5.82628L12.8705 6.5107C13.1727 6.7009 13.3616 7.04311 13.3616 7.4235C13.3616 7.80389 13.1727 8.10791 12.8705 8.3363L11.8505 9.02071C11.435 9.32499 11.2461 9.85739 11.435 10.3519L11.5106 10.5039C11.6995 10.9984 12.2284 11.2645 12.7195 11.1504L13.9284 10.9223C14.3063 10.8079 14.6838 10.922 14.9107 11.1883C15.1752 11.4547 15.2885 11.7969 15.2129 12.1771L14.9863 13.3942C14.873 13.8887 15.1752 14.4211 15.6284 14.6113L15.7794 14.6874C16.2706 14.8776 16.7994 14.7254 17.1016 14.2691L17.7814 13.2422C17.9704 12.9379 18.3103 12.7477 18.6881 12.7477C19.0659 12.7477 19.3679 12.9379 19.5947 13.2422L20.2745 14.2691C20.5768 14.6874 21.1056 14.8776 21.5968 14.6874L21.7477 14.6113C22.2389 14.4211 22.5031 13.8887 22.3899 13.3942L22.1633 12.1771C22.0876 11.8349 22.2009 11.4544 22.4655 11.1883C22.73 10.922 23.0699 10.8079 23.4475 10.8841L24.6564 11.1122C25.1476 11.2263 25.6764 10.922 25.8653 10.4657L25.941 10.3137C26.1299 9.81924 25.9787 9.28683 25.5254 8.98251L24.5052 8.2981C24.203 8.10789 24.0141 7.76572 24.0141 7.42323Z" fill="#C19047"/>
<path d="M20.1216 23.7011C20.6881 23.8913 21.3305 23.9292 22.0103 23.7772C23.5968 23.435 24.8433 22.0659 24.9943 20.4304C25.1453 18.8711 24.3522 17.502 23.1433 16.7794C22.8788 16.6274 22.7655 16.3231 22.8788 16.0567L23.332 14.9157C23.5209 14.4594 23.8985 14.3454 24.163 14.4974C24.3519 14.6114 24.5785 14.5735 24.7295 14.4594L26.3536 13.3946C26.5803 13.2426 26.8825 13.2805 27.0714 13.4707L27.7512 14.1551C27.9401 14.3453 27.9778 14.6496 27.8268 14.8778L26.77 16.5132C26.6567 16.7034 26.6567 16.9316 26.7323 17.1218C26.9212 17.464 27.0722 17.8444 27.1855 18.2245C27.2611 18.4527 27.4121 18.605 27.6387 18.6429C28.1299 18.757 28.9986 18.9092 29.5274 19.0233C29.792 19.0612 29.9806 19.3276 29.9806 19.5937V20.5444C29.9806 20.8108 29.7917 21.0768 29.5274 21.1148L27.6387 21.4952C27.4121 21.5331 27.2609 21.6854 27.1855 21.9135C27.0722 22.2939 26.921 22.6741 26.7323 23.0545C26.619 23.2447 26.619 23.4729 26.77 23.6631C27.0345 24.0814 27.5254 24.8419 27.8277 25.2982C27.9786 25.5264 27.941 25.8307 27.752 26.0209L27.0722 26.7053C26.8833 26.8955 26.5811 26.9334 26.3545 26.7814L24.7303 25.7166C24.5414 25.6025 24.3148 25.6025 24.1259 25.6786C23.786 25.8689 23.4081 26.0209 22.9926 26.1349C22.766 26.2111 22.6147 26.3631 22.577 26.5912C22.4637 27.0857 22.3125 27.9603 22.1992 28.4927C22.1615 28.7591 21.897 28.949 21.6327 28.949H20.6883C20.4238 28.949 20.1595 28.7588 20.1218 28.4927L19.744 26.5912C19.7063 26.401 19.5551 26.2108 19.3661 26.1349C19.2905 26.097 19.2152 26.097 19.1016 26.0588C18.8373 25.9068 18.6863 25.5646 18.8373 25.2603C19.0262 24.8799 19.2528 24.3857 19.4038 24.0053C19.5171 23.7392 19.8193 23.6251 20.1216 23.701L20.1216 23.7011Z" fill="#C19047"/>
</g>
<defs>
<clipPath id="clip0_1529_23658">
<rect width="30" height="30" fill="white"/>
</clipPath>
</defs>
</svg>
