<svg width="24" height="25" viewBox="0 0 24 25" fill="none" xmlns="http://www.w3.org/2000/svg">
<g clip-path="url(#clip0_1529_23670)">
<path d="M14.9138 23.0938C15.9874 23.1014 16.8665 22.2888 16.8665 21.2044V11.6484L10.043 19.5648L13.1033 22.3798C13.5973 22.8334 14.2445 23.0904 14.9141 23.0941L14.9138 23.0938Z" fill="#C19047"/>
<path d="M16.8661 9.32535L23.7912 1.29566C24.0644 0.982001 24.0307 0.502001 23.7202 0.230004C23.4097 -0.0459612 22.9344 -0.0119598 22.6651 0.301697L16.8663 7.02403V2.31202C16.8663 1.22768 15.9872 0.422683 14.9136 0.422683C14.375 0.437707 13.8625 0.645671 13.4621 1.00836L7.13953 6.46868H1.90181C0.828244 6.46868 0.03125 7.65134 0.03125 8.73602V14.782C0.03125 15.8664 0.828244 17.0494 1.90181 17.0494H7.13926C7.19536 17.1551 7.1878 17.0154 7.27026 17.0154L7.81645 17.518L2.45922 23.7335C2.186 24.0471 2.21966 24.5271 2.5302 24.7991C2.67634 24.9238 2.84831 24.9842 3.0242 24.9842C3.23375 24.9842 3.43938 24.8972 3.58918 24.7235L8.92396 18.5378L8.93518 18.5491L16.8664 9.34805L16.8661 9.32535Z" fill="#C19047"/>
</g>
<defs>
<clipPath id="clip0_1529_23670">
<rect width="24" height="25" fill="white"/>
</clipPath>
</defs>
</svg>
