<svg width="10" height="6" viewBox="0 0 10 6" fill="none" xmlns="http://www.w3.org/2000/svg">
<path d="M4.99935 5.47933C4.88824 5.47933 4.78074 5.4585 4.67685 5.41683C4.5724 5.37516 4.48546 5.31961 4.41602 5.25016L0.582682 1.41683C0.429904 1.26405 0.353516 1.06961 0.353516 0.833496C0.353516 0.597385 0.429904 0.40294 0.582682 0.250162C0.73546 0.0973847 0.929904 0.0209961 1.16602 0.0209961C1.40213 0.0209961 1.59657 0.0973847 1.74935 0.250162L4.99935 3.50016L8.24935 0.250162C8.40213 0.0973847 8.59657 0.0209961 8.83268 0.0209961C9.06879 0.0209961 9.26324 0.0973847 9.41601 0.250162C9.56879 0.40294 9.64518 0.597385 9.64518 0.833496C9.64518 1.06961 9.56879 1.26405 9.41601 1.41683L5.58268 5.25016C5.49935 5.3335 5.40907 5.39238 5.31185 5.42683C5.21463 5.46183 5.11046 5.47933 4.99935 5.47933Z" fill="#161618"/>
</svg>
