<svg width="20" height="19" viewBox="0 0 20 19" fill="none" xmlns="http://www.w3.org/2000/svg">
<path d="M19.2125 14.4156C19.0467 15.6816 18.4267 16.8443 17.4679 17.6876C16.5092 18.5308 15.2768 18.9972 14 19C6.55625 19 0.5 12.9438 0.5 5.50001C0.502815 4.22319 0.969194 2.99083 1.81243 2.03206C2.65566 1.07329 3.81837 0.453355 5.08438 0.287507C5.40711 0.251724 5.73284 0.319672 6.01435 0.481498C6.29586 0.643324 6.51851 0.890614 6.65 1.18751L8.53438 5.58438C8.63212 5.81261 8.67131 6.06163 8.64839 6.30885C8.62547 6.55607 8.54116 6.79364 8.40313 7.00001L6.84688 9.38126C7.55158 10.8114 8.71273 11.966 10.1469 12.6625L12.5 11.0969C12.7062 10.9579 12.9443 10.8738 13.192 10.8525C13.4397 10.8312 13.6888 10.8733 13.9156 10.975L18.3125 12.85C18.6094 12.9815 18.8567 13.2041 19.0185 13.4857C19.1803 13.7672 19.2483 14.0929 19.2125 14.4156ZM12.2563 2.47188C13.3979 2.78377 14.4384 3.38794 15.2752 4.22477C16.1121 5.06159 16.7162 6.10215 17.0281 7.24376C17.0695 7.40404 17.1628 7.54612 17.2933 7.64787C17.4239 7.74962 17.5845 7.80531 17.75 7.80626C17.8166 7.80613 17.8829 7.79667 17.9469 7.77813C18.0422 7.75319 18.1316 7.70946 18.2098 7.64953C18.2881 7.58959 18.3535 7.51465 18.4024 7.42908C18.4513 7.34352 18.4827 7.24905 18.4946 7.15123C18.5065 7.05341 18.4988 6.95419 18.4719 6.85938C18.0969 5.46128 17.3607 4.18644 16.3371 3.16289C15.3136 2.13934 14.0387 1.40311 12.6406 1.02813C12.5428 0.992491 12.4386 0.977611 12.3347 0.984439C12.2308 0.991268 12.1295 1.01965 12.0372 1.06779C11.9448 1.11593 11.8635 1.18277 11.7985 1.26404C11.7334 1.34532 11.6859 1.43925 11.6591 1.53987C11.6324 1.64049 11.6268 1.74558 11.6429 1.84846C11.6589 1.95133 11.6962 2.04974 11.7524 2.13741C11.8086 2.22508 11.8824 2.3001 11.9691 2.35769C12.0559 2.41527 12.1536 2.45416 12.2563 2.47188ZM11.4781 5.36876C12.1127 5.54246 12.6911 5.87848 13.1563 6.3437C13.6215 6.80892 13.9575 7.3873 14.1313 8.02188C14.1712 8.18296 14.264 8.32597 14.3949 8.42797C14.5258 8.52997 14.6872 8.58505 14.8531 8.58438C14.9167 8.585 14.98 8.57551 15.0406 8.55626C15.1368 8.53234 15.2272 8.48936 15.3065 8.42986C15.3858 8.37037 15.4523 8.29556 15.5021 8.20989C15.5519 8.12421 15.5841 8.02941 15.5966 7.93109C15.6091 7.83277 15.6018 7.73294 15.575 7.63751C15.3382 6.74642 14.8702 5.93374 14.2182 5.28179C13.5663 4.62983 12.7536 4.16177 11.8625 3.92501C11.7647 3.88937 11.6605 3.87449 11.5566 3.88131C11.4527 3.88814 11.3514 3.91653 11.259 3.96467C11.1667 4.01281 11.0854 4.07964 11.0203 4.16092C10.9553 4.24219 10.9078 4.33613 10.881 4.43675C10.8542 4.53736 10.8487 4.64246 10.8647 4.74533C10.8808 4.84821 10.9181 4.94662 10.9743 5.03429C11.0304 5.12196 11.1042 5.19698 11.191 5.25456C11.2777 5.31214 11.3755 5.35104 11.4781 5.36876Z" fill="#C19047"/>
</svg>
