<?xml version="1.0" encoding="utf-8"?><svg viewBox="0 0 512 312.36" xmlns="http://www.w3.org/2000/svg" xmlns:xlink="http://www.w3.org/1999/xlink"><style>:root>svg{display:none}:root>svg:target{display:block}</style><svg viewBox="0 0 30 31" id="back" xmlns="http://www.w3.org/2000/svg"><path d="M6.563 20.767l-3.75-3.75 3.75-3.75"/><path d="M3.75 17.017h23.438v-7.5"/></svg><svg shape-rendering="geometricPrecision" text-rendering="geometricPrecision" image-rendering="optimizeQuality" fill-rule="evenodd" clip-rule="evenodd" viewBox="0 0 512 312.36" id="bottom" xmlns="http://www.w3.org/2000/svg"><path fill-rule="nonzero" d="M32.66 5.71l220.49 241.11L479.35 0 512 29.87 253.12 312.36 0 35.58z"/></svg><svg viewBox="0 0 18 21" id="calc" xmlns="http://www.w3.org/2000/svg"><g clip-path="url(#ca)"><path fill-rule="evenodd" clip-rule="evenodd" d="M2.67 0C1.203 0 .007 1.132.007 2.519v15.953c0 1.386 1.196 2.519 2.661 2.519H15.31c1.465 0 2.661-1.133 2.661-2.52V2.52C17.972 1.132 16.776 0 15.311 0H2.669zm1.053 2.991h10.534c.882 0 1.608.688 1.608 1.522 0 .834-.726 1.522-1.608 1.522H3.723c-.881 0-1.608-.688-1.608-1.522 0-.834.727-1.522 1.608-1.522zm0 4.985c.881 0 1.608.688 1.608 1.522 0 .835-.727 1.522-1.608 1.522-.882 0-1.608-.688-1.608-1.522 0-.834.726-1.521 1.608-1.521zm5.267 0c.882 0 1.608.688 1.608 1.522 0 .835-.726 1.522-1.608 1.522-.881 0-1.608-.687-1.608-1.522 0-.834.727-1.522 1.608-1.522zm5.267 0c.882 0 1.608.688 1.608 1.522 0 .835-.726 1.522-1.608 1.522-.881 0-1.608-.687-1.608-1.522 0-.834.727-1.522 1.608-1.522zM3.723 11.965c.881 0 1.608.687 1.608 1.522 0 .834-.727 1.521-1.608 1.521-.882 0-1.608-.687-1.608-1.521 0-.835.726-1.522 1.608-1.522zm5.267 0c.882 0 1.608.687 1.608 1.522 0 .834-.726 1.521-1.608 1.521-.881 0-1.608-.687-1.608-1.521 0-.835.727-1.522 1.608-1.522zm5.267 0c.882 0 1.608.688 1.608 1.522v3.988c0 .834-.726 1.522-1.608 1.522-.881 0-1.608-.688-1.608-1.522v-3.988c0-.834.727-1.522 1.608-1.522zM3.723 15.953c.881 0 1.608.688 1.608 1.522 0 .834-.727 1.522-1.608 1.522-.882 0-1.608-.688-1.608-1.522 0-.835.726-1.522 1.608-1.522zm5.267 0c.882 0 1.608.688 1.608 1.522 0 .834-.726 1.522-1.608 1.522-.881 0-1.608-.688-1.608-1.522 0-.835.727-1.522 1.608-1.522z"/></g><defs><clipPath id="ca"><path d="M0 0h18v21H0z"/></clipPath></defs></svg><svg viewBox="0 0 30 30" id="guarantee1" xmlns="http://www.w3.org/2000/svg"><g clip-path="url(#da)"><path d="M15.4 20.087l1.209-.8c.49-.303.642-.912.453-1.444-.227-.533-.793-.837-1.322-.723l-1.435.267c-.416.076-.832-.077-1.134-.38l-.264-.267a1.295 1.295 0 01-.378-1.141l.264-1.446c.114-.57-.188-1.14-.717-1.33a1.14 1.14 0 00-1.436.456l-.793 1.217c-.227.342-.642.532-1.058.532h-.378c-.415 0-.83-.19-1.057-.532l-.794-1.217c-.302-.495-.906-.647-1.435-.457-.53.229-.831.8-.718 1.332l.264 1.445c.076.418-.075.836-.377 1.14l-.265.267c-.302.304-.718.456-1.133.38L1.46 17.12c-.566-.114-1.133.19-1.322.723a1.157 1.157 0 00.453 1.445l1.21.799c.34.228.528.646.528 1.065v.38c0 .418-.189.837-.529 1.065l-1.209.799c-.452.342-.64.95-.414 1.483.226.532.793.836 1.322.722l1.436-.266c.415-.076.83.076 1.133.38l.264.267c.303.304.454.722.378 1.14l-.264 1.446c-.114.57.189 1.14.717 1.331a1.14 1.14 0 001.436-.456l.793-1.217c.227-.342.642-.533 1.058-.533h.378c.415 0 .83.19 1.058.533l.793 1.217c.302.494.906.646 1.435.456.53-.228.831-.799.718-1.331l-.264-1.445a1.294 1.294 0 01.377-1.141l.265-.267c.302-.304.718-.456 1.133-.38l1.436.266c.566.114 1.133-.19 1.322-.722a1.157 1.157 0 00-.453-1.446l-1.248-.836a1.215 1.215 0 01-.529-1.027v-.419c0-.418.189-.836.529-1.064zm8.614-12.664c0-.38.19-.722.491-.913l1.02-.684c.416-.304.605-.837.416-1.331l-.076-.152a1.05 1.05 0 00-1.209-.647l-1.209.228a1.073 1.073 0 01-.982-.304 1.06 1.06 0 01-.302-.989l.227-1.217C22.503.92 22.2.387 21.747.197l-.15-.076a1.078 1.078 0 00-1.323.418l-.68 1.028a1.061 1.061 0 01-.906.494c-.378 0-.718-.19-.907-.494L17.101.54c-.301-.42-.83-.61-1.321-.42l-.15.076a1.06 1.06 0 00-.643 1.218l.227 1.217a1.09 1.09 0 01-.302.988c-.265.267-.605.38-.983.305l-1.209-.228c-.49-.114-1.02.19-1.208.646l-.076.152a1.094 1.094 0 00.415 1.331l1.02.685c.303.19.492.532.492.912s-.19.685-.492.913l-1.02.685c-.415.304-.604.836-.415 1.33l.076.153c.189.494.717.76 1.209.646l1.208-.228a.924.924 0 01.983.266c.264.267.378.609.302.99l-.227 1.216c-.113.495.19 1.027.642 1.217l.151.076a1.08 1.08 0 001.323-.418l.68-1.027c.188-.304.528-.494.906-.494s.68.19.907.494l.68 1.027c.302.418.83.609 1.322.418l.15-.076a1.06 1.06 0 00.643-1.217l-.227-1.217a1.09 1.09 0 01.302-.989c.265-.266.605-.38.983-.304l1.208.228c.492.114 1.02-.19 1.21-.646l.075-.152a1.094 1.094 0 00-.416-1.331l-1.02-.685a1.056 1.056 0 01-.49-.875zm-3.892 16.278c.566.19 1.209.228 1.888.076 1.587-.342 2.833-1.711 2.984-3.347a3.807 3.807 0 00-1.85-3.65c-.265-.153-.378-.457-.265-.723l.453-1.141c.189-.457.566-.57.831-.419a.51.51 0 00.567-.038l1.624-1.064a.569.569 0 01.717.076l.68.684c.19.19.227.495.076.723l-1.057 1.635a.693.693 0 00-.038.609c.19.342.34.722.454 1.102.075.229.226.381.453.419.49.114 1.36.266 1.888.38.265.038.454.305.454.57v.951c0 .267-.19.533-.454.57l-1.888.381c-.227.038-.378.19-.453.418a7.18 7.18 0 01-.454 1.142.52.52 0 00.038.608c.265.418.755 1.179 1.058 1.635a.579.579 0 01-.076.723l-.68.684a.569.569 0 01-.717.076l-1.625-1.064a.68.68 0 00-.604-.038 5.04 5.04 0 01-1.133.456c-.227.076-.378.228-.416.456-.113.495-.265 1.37-.378 1.902-.038.266-.302.456-.566.456h-.945c-.264 0-.528-.19-.566-.456l-.378-1.902a.653.653 0 00-.378-.456c-.075-.038-.15-.038-.264-.076-.265-.152-.416-.494-.265-.799a18.3 18.3 0 00.567-1.255c.113-.266.415-.38.718-.304z"/></g><defs><clipPath id="da"><path d="M0 0h30v30H0z"/></clipPath></defs></svg><svg viewBox="0 0 23 27" id="guarantee2" xmlns="http://www.w3.org/2000/svg"><g clip-path="url(#ea)"><path d="M12.255.027l10.71 3.556v8.99h-10.71V.027zm-1.53 0v12.547H.017V3.583L10.726.027zm12.24 13.93v1.728c0 4.658-5.534 7.976-10.71 11.27V13.957h10.71zm-12.24 0v12.999C5.55 23.66.017 20.342.017 15.686v-1.73h10.71z"/></g><defs><clipPath id="ea"><path transform="matrix(-1 0 0 1 23 0)" d="M0 0h23v27H0z"/></clipPath></defs></svg><svg viewBox="0 0 24 25" id="guarantee3" xmlns="http://www.w3.org/2000/svg"><g clip-path="url(#fa)"><path d="M14.914 23.094c1.073.007 1.952-.805 1.952-1.89v-9.556l-6.823 7.917 3.06 2.815c.494.453 1.142.71 1.811.714zm1.952-13.769l6.925-8.03a.76.76 0 00-.07-1.065.742.742 0 00-1.056.072l-5.799 6.722V2.312c0-1.084-.879-1.89-1.952-1.89a2.253 2.253 0 00-1.452.586L7.14 6.468H1.902c-1.074 0-1.87 1.183-1.87 2.268v6.046c0 1.084.796 2.267 1.87 2.267h5.237c.056.106.049-.034.131-.034l.546.503-5.357 6.215a.753.753 0 00.565 1.25.74.74 0 00.565-.26l5.335-6.185.011.011 7.931-9.2v-.024z"/></g><defs><clipPath id="fa"><path d="M0 0h24v25H0z"/></clipPath></defs></svg><svg viewBox="0 0 22 22" id="mail" xmlns="http://www.w3.org/2000/svg"><path d="M3.67 18.333c-.505 0-.936-.18-1.295-.538a1.766 1.766 0 01-.54-1.295v-11c0-.504.18-.936.54-1.295.359-.359.79-.538 1.294-.538h14.667c.504 0 .936.18 1.295.538.359.36.538.79.538 1.295v11c0 .504-.18.936-.538 1.295-.36.359-.79.538-1.295.538H3.669zm7.333-6.577a.945.945 0 00.481-.137l6.485-4.057a.759.759 0 00.367-.664.747.747 0 00-.39-.688c-.26-.153-.527-.145-.802.023l-6.141 3.85-6.142-3.85c-.275-.168-.542-.172-.802-.012-.26.161-.39.386-.39.677 0 .153.03.286.092.4a.612.612 0 00.275.264l6.485 4.057a.943.943 0 00.482.137z"/></svg><svg viewBox="0 0 16 20" id="map" xmlns="http://www.w3.org/2000/svg"><path d="M8 0C3.8 0 0 3.22 0 8.2c0 3.18 2.45 6.92 7.34 11.23.38.33.95.33 1.33 0C13.55 15.12 16 11.38 16 8.2 16 3.22 12.2 0 8 0zm0 10c-1.1 0-2-.9-2-2s.9-2 2-2 2 .9 2 2-.9 2-2 2z"/></svg><svg viewBox="0 0 19 19" id="phone" xmlns="http://www.w3.org/2000/svg"><path d="M8.034 10.893a10.751 10.751 0 003.905 2.528l1.99-1.583a.354.354 0 01.401 0l3.694 2.38a1.056 1.056 0 01.175 1.679l-1.732 1.71a2.111 2.111 0 01-1.915.564 18.52 18.52 0 01-9.052-4.75A17.834 17.834 0 01.608 4.54a1.995 1.995 0 01.58-1.874L2.983.935a1.056 1.056 0 011.646.168L7.09 4.75a.333.333 0 010 .396L5.47 7.093a10.423 10.423 0 002.565 3.8z"/></svg><svg viewBox="0 0 20 19" id="phone2" xmlns="http://www.w3.org/2000/svg"><path d="M19.212 14.416A5.269 5.269 0 0114 19C6.556 19 .5 12.944.5 5.5A5.269 5.269 0 015.084.288a1.528 1.528 0 011.566.9l1.884 4.396A1.49 1.49 0 018.404 7L6.846 9.381a7.172 7.172 0 003.3 3.281l2.353-1.565a1.462 1.462 0 011.416-.122l4.396 1.875a1.528 1.528 0 01.9 1.566zM12.256 2.472a6.806 6.806 0 014.772 4.772.75.75 0 00.722.562c.067 0 .133-.01.197-.028a.74.74 0 00.525-.919 8.25 8.25 0 00-5.831-5.83.75.75 0 10-.385 1.443zm-.778 2.897a3.787 3.787 0 012.653 2.653.74.74 0 00.722.562.6.6 0 00.188-.028.74.74 0 00.534-.918 5.231 5.231 0 00-3.712-3.713.75.75 0 10-.385 1.444z"/></svg><svg viewBox="0 0 22 22" id="user" xmlns="http://www.w3.org/2000/svg"><path d="M19.93 18.906a.67.67 0 01-.592.344H2.666a.67.67 0 01-.593-.344.662.662 0 010-.687 10.373 10.373 0 015.766-4.658 6.187 6.187 0 116.325 0c2.43.79 4.484 2.448 5.767 4.658a.663.663 0 010 .687z"/></svg></svg>