<svg width="45" height="45" viewBox="0 0 45 45" fill="none" xmlns="http://www.w3.org/2000/svg">
<rect width="45" height="45" rx="5" fill="white" fill-opacity="0.72"/>
<path d="M22.5 34.5C15.885 34.5 10.5 29.115 10.5 22.5C10.5 15.885 15.885 10.5 22.5 10.5C29.115 10.5 34.5 15.885 34.5 22.5C34.5 29.115 29.115 34.5 22.5 34.5ZM22.5 7.5C20.5302 7.5 18.5796 7.88799 16.7597 8.64181C14.9399 9.39563 13.2863 10.5005 11.8934 11.8934C9.08035 14.7064 7.5 18.5218 7.5 22.5C7.5 26.4782 9.08035 30.2936 11.8934 33.1066C13.2863 34.4995 14.9399 35.6044 16.7597 36.3582C18.5796 37.112 20.5302 37.5 22.5 37.5H34.5C35.2957 37.5 36.0587 37.1839 36.6213 36.6213C37.1839 36.0587 37.5 35.2957 37.5 34.5V22.5C37.5 20.5302 37.112 18.5796 36.3582 16.7597C35.6044 14.9399 34.4995 13.2863 33.1066 11.8934C31.7137 10.5005 30.0601 9.39563 28.2403 8.64181C26.4204 7.88799 24.4698 7.5 22.5 7.5ZM24 15H21V21H15V24H21V30H24V24H30V21H24V15Z" fill="#161618"/>
</svg>
